<svg xmlns="http://www.w3.org/2000/svg" font-size="16" viewBox="0 0 144 144">
  <defs>
    <pattern id="bg" patternUnits="userSpaceOnUse" width="60" height="20">
      <g stroke="ghostwhite" stroke-linecap="square">
        <line x1="0.5" y1="19.5"
              x2="59.5" y2="19.5" />
        <line x1="0.5" y1="39.5"
              x2="59.5" y2="39.5" />
        <line x1="19.5" y1="0.5"
              x2="19.5" y2="39.5" />
        <line x1="39.5" y1="0.5"
              x2="39.5" y2="39.5" />
        <line x1="59.5" y1="0.5"
              x2="59.5" y2="39.5" />
      </g>
    </pattern>
  </defs>
  <g>
    <g transform="translate(0 0) rotate(45 72 72)">
      <rect x="-30" y="-30" width="204" height="204" fill="url(#bg)" />
      <g transform="translate(-16 46) scale(0.85)" text-anchor="middle" fill="currentColor">
        <text x="10.73125" y="29.5" dy="0.25em">~</text>
        <text x="18.15682" y="8" transform="scale(1.385744 3.6875)" dy="0.25em">(</text>
        <text x="39.258909" y="8" dy="0.25em">2</text>
        <text x="60.571409" y="8" dy="0.25em">&#x2212;</text>
        <text x="69.08391" y="8" dy="0.25em">2</text>
        <text x="94.39641" y="8" dy="0.25em">1</text>
        <text x="120.221411" y="8" dy="0.25em">&#x2212;</text>
        <text x="128.733911" y="8" dy="0.25em">3</text>
        <text x="39.258909" y="28" dy="0.25em">0</text>
        <text x="64.571409" y="28" dy="0.25em">4</text>
        <text x="91.14641" y="22.5" font-size="13" dy="0.25em">&#x2212;</text>
        <text x="98.06516" y="22.5" font-size="13" dy="0.25em">5</text>
        <line x1="87.47766" y1="28.5"
              x2="101.31516" y2="28.5" stroke="currentColor" />
        <text x="94.39641" y="36.5" font-size="13" dy="0.25em">2</text>
        <text x="124.221411" y="22.5" font-size="13" dy="0.25em">5</text>
        <line x1="120.971411" y1="28.5"
              x2="127.471411" y2="28.5" stroke="currentColor" />
        <text x="124.221411" y="36.5" font-size="13" dy="0.25em">2</text>
        <text x="39.258909" y="51" dy="0.25em">3</text>
        <text x="60.571409" y="51" dy="0.25em">&#x2212;</text>
        <text x="69.08391" y="51" dy="0.25em">1</text>
        <text x="90.39641" y="51" dy="0.25em">&#x2212;</text>
        <text x="98.90891" y="51" dy="0.25em">1</text>
        <text x="124.221411" y="51" dy="0.25em">2</text>
        <text x="103.072512" y="8" transform="scale(1.385744 3.6875)" dy="0.25em">)</text>
        <g stroke-linecap="round" stroke-linejoin="round" stroke="currentColor" transform="translate(150.5 0.5)">
          <polyline points="0.5,7 12,7 12,48 1,48" fill="none" />
          <g transform="translate(-1.5 -8)">
            <polygon points="0.5,56 7.5,52.5 7.5,59.5" />
          </g>
        </g>
        <g transform="translate(16 0)">
          <text x="154.598375" y="29.5" dy="0.25em">&#xD7;</text>
          <text x="145.389459" y="18.37037" transform="scale(1.139754 1.6875)" dy="0.25em">(</text>
          <text x="172.418616" y="24" font-size="13" dy="0.25em">&#x2212;</text>
          <text x="179.337366" y="24" font-size="13" dy="0.25em">3</text>
          <line x1="168.749866" y1="30"
                x2="182.587366" y2="30" stroke="currentColor" />
          <text x="175.668616" y="38" font-size="13" dy="0.25em">2</text>
          <text x="162.867742" y="18.37037" transform="scale(1.139754 1.6875)" dy="0.25em">)</text>
        </g>
      </g>
    </g>
  </g>
</svg>
